<?xml version="1.0" encoding="utf-8"?>
<!-- Generator: Adobe Illustrator 19.1.0, SVG Export Plug-In . SVG Version: 6.00 Build 0)  -->
<svg version="1.1" xmlns="http://www.w3.org/2000/svg" xmlns:xlink="http://www.w3.org/1999/xlink" x="0px" y="0px"
	 viewBox="0 0 309.4 309.4" style="enable-background:new 0 0 309.4 309.4;" xml:space="preserve">
<g id="レイヤー_1" style="display:none;">
</g>
<g id="レイヤー_2">
	<path style="fill:#A1D9F0;" d="M295,108.9c-12.7-9.2-71.2,12-88.1,0c-1.3-0.9-2.5-1.9-3.7-2.8c-1-1.1-1.9-2.3-2.8-3.7
		c-12-16.9,9.2-75.4,0-88.1C191.3,1.7,175.8,0,154.7,0s-36.6,1.7-45.8,14.3c-9.2,12.7,12,71.2,0,88.1c-0.9,1.3-1.9,2.5-2.8,3.7
		c-1.1,1-2.3,1.9-3.7,2.8c-16.9,12-75.4-9.2-88.1,0C1.7,118.1,0,133.6,0,154.7s1.7,36.6,14.3,45.8c12.7,9.2,71.2-12,88.1,0
		c1.3,0.9,2.5,1.9,3.7,2.8c1,1.1,1.9,2.3,2.8,3.7c12,16.9-9.2,75.4,0,88.1c9.2,12.7,24.6,14.3,45.8,14.3s36.6-1.7,45.8-14.3
		c9.2-12.7-12-71.2,0-88.1c0.9-1.3,1.9-2.5,2.8-3.7c1.1-1,2.3-1.9,3.7-2.8c16.9-12,75.4,9.2,88.1,0c12.7-9.2,14.3-24.6,14.3-45.8
		S307.7,118.1,295,108.9z"/>
</g>
</svg>
